<svg xmlns="http://www.w3.org/2000/svg" viewBox="0 0 960 540" fill="none" role="img" aria-label="HRMS wireframe">
  <rect width="960" height="540" fill="#101113"/>
  <rect x="24" y="24" width="200" height="492" rx="8" fill="#17191d" stroke="#343943"/>
  <rect x="44" y="44" width="48" height="48" rx="24" fill="#c02bd6"/>
  <rect x="100" y="52" width="100" height="12" rx="4" fill="#343943"/>
  <rect x="100" y="72" width="60" height="8" rx="4" fill="#242832"/>
  <rect x="44" y="120" width="160" height="32" rx="6" fill="#202329" stroke="#c02bd6"/>
  <rect x="44" y="164" width="160" height="32" rx="6" fill="#17191d" stroke="#343943"/>
  <rect x="44" y="208" width="160" height="32" rx="6" fill="#17191d" stroke="#343943"/>
  <rect x="44" y="252" width="160" height="32" rx="6" fill="#17191d" stroke="#343943"/>
  <rect x="44" y="296" width="160" height="32" rx="6" fill="#17191d" stroke="#343943"/>
  <rect x="248" y="24" width="688" height="492" rx="8" fill="#17191d" stroke="#343943"/>
  <rect x="272" y="48" width="180" height="10" rx="4" fill="#a8b0bd"/>
  <rect x="272" y="68" width="280" height="24" rx="4" fill="#f2f4f8"/>
  <rect x="272" y="112" width="120" height="80" rx="8" fill="#202329" stroke="#343943"/>
  <rect x="408" y="112" width="120" height="80" rx="8" fill="#202329" stroke="#343943"/>
  <rect x="544" y="112" width="120" height="80" rx="8" fill="#202329" stroke="#343943"/>
  <rect x="680" y="112" width="120" height="80" rx="8" fill="#202329" stroke="#343943"/>
  <rect x="272" y="216" width="528" height="180" rx="8" fill="#202329" stroke="#343943"/>
  <rect x="292" y="236" width="200" height="12" rx="4" fill="#f2f4f8"/>
  <rect x="292" y="268" width="488" height="8" rx="4" fill="#343943"/>
  <rect x="292" y="288" width="488" height="8" rx="4" fill="#343943"/>
  <rect x="292" y="308" width="488" height="8" rx="4" fill="#343943"/>
  <rect x="292" y="328" width="360" height="8" rx="4" fill="#343943"/>
  <rect x="272" y="416" width="256" height="76" rx="8" fill="#202329" stroke="#343943"/>
  <rect x="544" y="416" width="256" height="76" rx="8" fill="#202329" stroke="#343943"/>
  <circle cx="800" cy="48" r="6" fill="#28b879"/>
  <text x="812" y="52" fill="#a8b0bd" font-family="system-ui,sans-serif" font-size="11">Live Demo</text>
</svg>
